<?xml version="1.0" standalone="no"?><!DOCTYPE svg PUBLIC "-//W3C//DTD SVG 1.1//EN" "http://www.w3.org/Graphics/SVG/1.1/DTD/svg11.dtd"><svg t="1537179125328" class="icon" style="" viewBox="0 0 1024 1024" version="1.1" xmlns="http://www.w3.org/2000/svg" p-id="1494" xmlns:xlink="http://www.w3.org/1999/xlink" width="200" height="200"><defs><style type="text/css"></style></defs><path d="M960 619.136V704h-84.864L768 596.864 660.864 704H576V619.136L683.136 512 576 404.864V320h84.864L768 427.136 875.136 320H960v84.864L852.864 512 960 619.136zM416 960a32.256 32.256 0 0 1-22.656-9.344L146.688 704H31.936a32 32 0 0 1-32-32v-320a32 32 0 0 1 32-32h114.752l246.656-246.656A31.936 31.936 0 0 1 448 96v832a32 32 0 0 1-32 32z" p-id="1495"></path></svg>