<?xml version="1.0" standalone="no"?><!DOCTYPE svg PUBLIC "-//W3C//DTD SVG 1.1//EN" "http://www.w3.org/Graphics/SVG/1.1/DTD/svg11.dtd"><svg t="1537265653301" class="icon" style="" viewBox="0 0 1024 1024" version="1.1" xmlns="http://www.w3.org/2000/svg" p-id="7567" xmlns:xlink="http://www.w3.org/1999/xlink" width="200" height="200"><defs><style type="text/css"></style></defs><path d="M915.746268 0h-807.911811C48.273134 0 0 48.482772 0 107.834457v807.911811c0 59.561323 48.482772 107.834457 107.834457 107.834456h807.911811c59.561323 0 107.834457-48.482772 107.834456-107.834456v-807.911811c0-59.343622-48.482772-107.834457-107.834456-107.834457z m56.634456 915.746268c0 31.139276-25.495181 56.634457-56.634456 56.634456h-807.911811c-31.139276 0-56.634457-25.495181-56.634457-56.634456v-807.911811c0-31.139276 25.495181-56.634457 56.634457-56.634457h807.911811c31.139276 0 56.634457 25.495181 56.634456 56.634457v807.911811zM666.648189 356.948661a25.479055 25.479055 0 0 0-36.154457 0L511.790362 475.635906 393.086992 356.948661a25.479055 25.479055 0 0 0-36.146394 0 25.479055 25.479055 0 0 0 0 36.146394L475.635906 511.790362 356.948661 630.493732a25.479055 25.479055 0 0 0 0 36.154457 25.454866 25.454866 0 0 0 18.173985 7.522772c6.692283 0 13.166866-2.507591 18.182047-7.522772L512 547.944819 630.70337 666.648189a25.454866 25.454866 0 0 0 18.182047 7.522772c6.68422 0 13.158803-2.507591 18.173985-7.522772a25.479055 25.479055 0 0 0 0-36.154457L547.944819 511.790362 666.648189 393.086992a25.479055 25.479055 0 0 0 0-36.146394z" fill="#20A0FF" p-id="7568"></path></svg>