<?xml version="1.0" standalone="no"?><!DOCTYPE svg PUBLIC "-//W3C//DTD SVG 1.1//EN" "http://www.w3.org/Graphics/SVG/1.1/DTD/svg11.dtd"><svg t="1537320447302" class="icon" style="" viewBox="0 0 1024 1024" version="1.1" xmlns="http://www.w3.org/2000/svg" p-id="2212" xmlns:xlink="http://www.w3.org/1999/xlink" width="200" height="200"><defs><style type="text/css"></style></defs><path d="M973.632 726.656l-93.888 0c-10.752 0-19.392-8.832-19.392-19.712 0-10.944 8.64-19.712 19.392-19.712l93.888 0c8.128 0 15.104 5.184 17.92 12.48l6.464 0 0-56.64c-10.304-1.792-18.112-11.008-18.112-22.016L979.904 506.752c0-12.352 9.856-22.464 22.08-22.464S1024 494.4 1024 506.752l0 114.368c0 8.384-4.48 15.68-11.264 19.52l0 59.136 0 7.488 0 7.488-21.44 0C988.352 721.664 981.504 726.656 973.632 726.656z" p-id="2213"></path><path d="M915.2 732.864l24.96 0 0 91.136-24.96 0 0-91.136Z" p-id="2214"></path><path d="M895.68 579.008c-9.344-1.6-16.448-9.92-16.448-19.904L879.232 456.192c0-11.2 8.96-20.224 19.968-20.224s19.904 9.024 19.904 20.224l0 102.912c0 7.552-4.032 14.144-10.048 17.6l0 53.248 0 6.72 0 6.72L889.6 643.392c-2.624 6.272-8.768 10.624-15.936 10.624L789.12 654.016c-9.6 0-17.344-7.872-17.344-17.664s7.744-17.664 17.344-17.664l84.544 0c7.296 0 13.696 4.608 16.192 11.264l5.824 0L895.68 579.008z" p-id="2215"></path><path d="M686.144 501.248 845.376 832 679.04 832 347.2 832 180.928 832 340.096 501.248 512.64 501.248 513.6 501.248Z" p-id="2216"></path><path d="M821.12 659.776l22.4 0 0 82.112-22.4 0 0-82.112Z" p-id="2217"></path><path d="M737.28 494.848c0-8.768 6.976-15.808 15.488-15.808l75.456 0c6.592 0 12.16 4.16 14.464 10.048l5.184 0 0-45.44c-8.32-1.536-14.656-8.96-14.656-17.792L833.216 334.08c0-9.984 7.936-18.048 17.664-18.048 9.856 0 17.792 8.064 17.792 18.048l0 91.776c0 6.784-3.648 12.672-9.088 15.744l0 47.488 0 6.016L859.584 501.12l-17.28 0c-2.304 5.632-7.744 9.472-14.208 9.472l-75.456 0C744.256 510.656 737.28 503.616 737.28 494.848z" p-id="2218"></path><path d="M781.248 515.712l20.032 0 0 73.216-20.032 0 0-73.216Z" p-id="2219"></path><path d="M699.136 214.016 699.136 454.4c0 12.16-9.664 22.016-21.632 22.016L348.608 476.416c-11.968 0-21.632-9.792-21.632-22.016L326.976 214.016C326.976 201.856 336.704 192 348.608 192l328.896 0C689.408 192 699.136 201.856 699.136 214.016zM674.56 449.984 674.56 218.432 351.232 218.432l0 231.552L674.56 449.984z" p-id="2220"></path><path d="M581.056 350.208c0 50.368 0 62.272 0 62.272L530.176 412.48 495.168 412.48 444.288 412.48c0 0 0-11.904 0-62.272 0-28.864 22.528-41.792 41.728-47.488L512.64 378.816 539.328 302.72C558.528 308.416 581.056 321.344 581.056 350.208z" p-id="2221"></path><path d="M511.872 237.568c19.84 0 25.024 14.912 25.024 33.28S522.688 304 511.872 304c-10.88 0-25.152-14.848-25.152-33.216S491.904 237.568 511.872 237.568z" p-id="2222"></path><path d="M522.816 336.384 512.704 362.688 503.04 336.384 510.592 310.08 514.88 310.08Z" p-id="2223"></path><path d="M222.656 515.52l20.032 0 0 73.28-20.032 0 0-73.28Z" p-id="2224"></path><path d="M180.48 659.648l22.464 0 0 82.112-22.464 0 0-82.112Z" p-id="2225"></path><path d="M286.784 494.72c0 8.768-6.912 15.744-15.552 15.744L195.84 510.464c-6.4 0-11.84-3.904-14.272-9.472L164.352 500.992 164.352 494.976 164.352 489.024 164.352 441.472C158.976 438.4 155.328 432.512 155.328 425.728L155.328 333.952c0-9.984 8-17.984 17.728-17.984s17.728 8 17.728 17.984l0 91.84c0 8.896-6.336 16.256-14.656 17.792l0 45.44 5.248 0C183.68 483.136 189.248 478.912 195.84 478.912l75.392 0C279.872 478.912 286.784 486.016 286.784 494.72z" p-id="2226"></path><path d="M104.96 456.128c0-11.264 8.896-20.288 19.904-20.288s19.904 9.088 19.904 20.288l0 102.848c0 9.92-7.04 18.24-16.384 19.904l0 51.008 5.824 0c2.56-6.656 8.832-11.264 16.192-11.264L234.88 618.624c9.6 0 17.408 7.872 17.408 17.664s-7.808 17.664-17.408 17.664L150.336 653.952c-7.168 0-13.312-4.352-16-10.688L115.008 643.264 115.008 636.608 115.008 629.888 115.008 576.64C108.992 573.12 104.96 566.528 104.96 558.976L104.96 456.128z" p-id="2227"></path><path d="M83.904 732.736l24.96 0 0 91.136-24.96 0 0-91.136Z" p-id="2228"></path><path d="M11.264 699.648l0-59.136C4.544 636.608 0 629.376 0 620.928L0 506.688c0-12.416 9.92-22.528 22.08-22.528 12.224 0 22.08 10.048 22.08 22.528l0 114.24c0 11.072-7.872 20.288-18.176 22.208l0 56.512 6.464 0c2.816-7.296 9.792-12.48 17.984-12.48l93.888 0c10.688 0 19.328 8.832 19.328 19.712s-8.64 19.648-19.328 19.648L50.432 726.528c-7.936 0-14.72-4.8-17.728-11.84L11.264 714.688l0-7.488L11.264 699.648z" p-id="2229"></path></svg>