<?xml version="1.0" standalone="no"?><!DOCTYPE svg PUBLIC "-//W3C//DTD SVG 1.1//EN" "http://www.w3.org/Graphics/SVG/1.1/DTD/svg11.dtd"><svg t="1537264914477" class="icon" style="" viewBox="0 0 1024 1024" version="1.1" xmlns="http://www.w3.org/2000/svg" p-id="5221" xmlns:xlink="http://www.w3.org/1999/xlink" width="200" height="200"><defs><style type="text/css"></style></defs><path d="M0.000323 25.6A25.374236 25.374236 0 0 1 25.705141 0.104819h971.130961c14.206992 0 25.704819 11.288189 25.704819 25.495181v465.395906c0 14.005417-11.497827 25.495181-25.704819 25.495181-14.215055 0-25.704819-11.288189-25.704819-25.495181V51.095181H51.200323V971.026142h442.617952a25.688693 25.688693 0 0 1 25.704819 25.704819 25.688693 25.688693 0 0 1-25.704819 25.704819H25.705141A25.688693 25.688693 0 0 1 0.000323 996.730961V25.6zM996.626464 1022.226142v0.209638h-355.900472a25.688693 25.688693 0 0 1-25.696756-25.704819V640.628913a25.688693 25.688693 0 0 1 25.704819-25.704819h355.892409a25.688693 25.688693 0 0 1 25.704819 25.704819v355.89241a25.688693 25.688693 0 0 1-25.704819 25.704819zM666.229236 666.124094v304.902048h304.902047V666.124094H666.229236zM284.003094 538.446614a25.688693 25.688693 0 0 1 25.704819-25.704819H476.684417L186.81985 222.877228a25.479055 25.479055 0 0 1 0-36.154456 25.479055 25.479055 0 0 1 36.154457 0l289.856504 289.864567v-166.984567a25.688693 25.688693 0 0 1 25.704819-25.704819 25.688693 25.688693 0 0 1 25.704819 25.704819v228.827716a25.688693 25.688693 0 0 1-25.704819 25.712882H309.69985a25.688693 25.688693 0 0 1-25.704819-25.704819z" fill="#20A0FF" p-id="5222"></path></svg>