<?xml version="1.0" standalone="no"?><!DOCTYPE svg PUBLIC "-//W3C//DTD SVG 1.1//EN" "http://www.w3.org/Graphics/SVG/1.1/DTD/svg11.dtd"><svg t="1537186370714" class="icon" style="" viewBox="0 0 1024 1024" version="1.1" xmlns="http://www.w3.org/2000/svg" p-id="2710" xmlns:xlink="http://www.w3.org/1999/xlink" width="200" height="200"><defs><style type="text/css"></style></defs><path d="M764.74368 769.37216a20.48 20.48 0 0 0 14.82752-6.3488c58.40896-61.17376 91.89376-150.15936 91.89376-244.16256 0-93.98272-33.50528-182.96832-91.87328-244.14208a20.50048 20.50048 0 0 0-29.63456 28.28288c51.2 53.63712 80.56832 132.32128 80.56832 215.8592 0 83.5584-29.36832 162.24256-80.5888 215.87968a20.50048 20.50048 0 0 0 14.80704 34.63168z" fill="" p-id="2711"></path><path d="M696.64768 706.19136a20.43904 20.43904 0 0 0 14.29504-5.81632c45.568-44.48256 71.70048-110.61248 71.70048-181.47328 0-70.88128-26.13248-137.0112-71.70048-181.49376a20.48 20.48 0 1 0-28.59008 29.32736c37.70368 36.80256 59.33056 92.28288 59.33056 152.18688s-21.64736 115.36384-59.33056 152.1664a20.48 20.48 0 0 0 14.29504 35.10272z" fill="" p-id="2712"></path><path d="M616.12032 605.61408a20.50048 20.50048 0 0 0 26.29632 31.4368c32.19456-26.91072 51.42528-71.10656 51.42528-118.1696 0-47.77984-19.68128-92.32384-52.6336-119.1936a20.50048 20.50048 0 0 0-25.86624 31.76448c23.51104 19.16928 37.56032 51.85536 37.56032 87.4496-0.04096 35.08224-13.78304 67.50208-36.78208 86.71232zM492.1344 256.73728l-167.99744 125.62432h-87.552a20.48 20.48 0 0 0-20.48 20.48v232.12032a20.48 20.48 0 0 0 20.48 20.48h87.552l167.99744 125.62432a20.43904 20.43904 0 0 0 21.44256 1.92512c6.92224-3.4816 11.30496-10.56768 11.30496-18.3296v-491.52c0-7.76192-4.38272-14.848-11.30496-18.3296a20.62336 20.62336 0 0 0-21.44256 1.92512z m-8.21248 467.0464l-140.6976-105.22624a20.52096 20.52096 0 0 0-12.26752-4.07552h-73.89184V423.3216h73.89184c4.42368 0 8.72448-1.4336 12.26752-4.07552l140.6976-105.22624v409.76384z" fill="" p-id="2713"></path></svg>